# xmcd
#
# Track frame offsets: 
#        150
#        17436
#        31749
#        44584
#        61839
#        78986
#        92650
#        105540
#        115167
#        128497
#        138834
#        147325
#
# Disc length: 2185 seconds
#
# Revision: 1
# Processed by: cddbd v1.5.1PL2 Copyright (c) Steve Scherf et al.
# Submitted via: ExactAudioCopy v0.95b3
#
DISCID=8f08870c
DTITLE=Dillard and Clark - The Fantastic Expedition of Dillard and Clark
DYEAR=1968
DGENRE=Country
TTITLE0=Out on the Side
TTITLE1=She Darked the Sun
TTITLE2=Don't Come Rollin'
TTITLE3=Train Leaves Here This Mornin'
TTITLE4=With Care from Someone
TTITLE5=The Radio Song
TTITLE6=Git It on Brother (Git in Line Brother)
TTITLE7=In the Plan
TTITLE8=Something's Wrong
TTITLE9=Lyin' Down the Middle [*]
TTITLE10=Don't Be Cruel [*]
TTITLE11=Why Not Your Baby [*]
EXTD=Larry Marks  Producer \n Donna Washburn  Tambourine, Vocals, Gui
EXTD=tar \n Guy Webster  Photography \n Bob Garcia  Liner Notes \n Tom
EXTD=Wilkes  Art Direction \n Andy Belling  Harpsichord, Electric Har
EXTD=psichord \n Sneaky Pete Kleinow  Pedal Steel \n Don Beck  Dobro, 
EXTD=Guitar, Harmonica, Mandolin \n Byron Berline  Fiddle \n Dick Boge
EXTD=rt  Engineer \n Michael Clarke  Drums \n Jon Corneal  Drums, Tamb
EXTD=ourine \n David Jackson  Cello, Vocals, String Bass, Bass, Piano 
EXTD=\n Bernie Leadon  Vocals, Banjo, Bass, Guitar \n Chris Hi
EXTT0=
EXTT1=
EXTT2=
EXTT3=
EXTT4=
EXTT5=
EXTT6=
EXTT7=
EXTT8=
EXTT9=
EXTT10=
EXTT11=
PLAYORDER=
